<?xml version="1.0" encoding="utf-8"?>
<!-- Generator: Adobe Illustrator 24.3.0, SVG Export Plug-In . SVG Version: 6.00 Build 0)  -->
<svg version="1.1" xmlns="http://www.w3.org/2000/svg" xmlns:xlink="http://www.w3.org/1999/xlink" x="0px" y="0px"
	 viewBox="0 0 841.89 595.28" style="enable-background:new 0 0 841.89 595.28;" xml:space="preserve">
<style type="text/css">
	.st0{fill:#FFFFFF;}
	.st1{fill:#545353;}
	.st2{fill:#670D3A;}
	.st3{stroke:#231F20;stroke-miterlimit:10;}
	.st4{fill:#0B1B3E;}
	.st5{fill:#39B54A;}
	.st6{fill:#935DA6;}
	.st7{fill:#E99E91;}
	.st8{fill:none;}
	.st9{fill:#F26754;stroke:#F37665;stroke-width:0.75;stroke-miterlimit:10;}
	.st10{font-family:'Beatrica';}
	.st11{font-size:116px;}
	.st12{fill:#331913;}
	.st13{fill:#F26754;}
	.st14{fill:#F9B6A8;}
	.st15{fill:#EA9C8F;}
	.st16{fill:#2D1611;}
	.st17{fill:#A62560;}
	.st18{fill:#8B1F4C;}
	.st19{fill:none;stroke:#101932;stroke-miterlimit:10;}
	.st20{fill:#101932;}
	.st21{fill:none;stroke:#39B54A;stroke-miterlimit:10;}
	.st22{fill:none;stroke:#FFFFFF;stroke-width:0.5;stroke-miterlimit:10;}
	.st23{fill:none;stroke:#FFFFFF;stroke-width:4;stroke-miterlimit:10;}
	.st24{fill:none;stroke:#FFFFFF;stroke-width:2;stroke-miterlimit:10;}
	.st25{fill:none;stroke:#FFFFFF;stroke-miterlimit:10;}
	.st26{fill:#231F20;stroke:#231F20;stroke-width:2;stroke-miterlimit:10;}
	.st27{fill:#231F20;stroke:#231F20;stroke-miterlimit:10;}
	.st28{fill:#FCB247;}
	.st29{fill:#F5855A;}
	.st30{fill:#8EC8D1;}
	.st31{fill:#A2594E;}
	.st32{fill:#4D62AC;}
	.st33{fill:#070A0B;}
	.st34{fill:#E64525;}
	.st35{fill:#EF70AA;}
	.st36{fill:#20583A;}
	.st37{fill:#88B540;}
	.st38{fill:none;stroke:#FCB247;stroke-width:4;stroke-miterlimit:10;}
</style>
<g id="girl">
</g>
<g id="Layer_9">
</g>
<g id="line_art">
	<g>
		<path class="st7" d="M422.88,389.65L422.88,389.65c0.09,0,0.18-0.01,0.28-0.01c-0.16,0-0.32,0-0.48,0
			C422.74,389.65,422.81,389.65,422.88,389.65z"/>
		<rect x="294.67" y="409.51" class="st8" width="256.5" height="88.89"/>
		<text transform="matrix(1 0 0 1 294.6669 480.9884)" class="st9 st10 st11">Eclore</text>
		<path class="st12" d="M495.58,360.83l0.01-0.37c-0.06,0.06-0.13,0.12-0.2,0.19L495.58,360.83z"/>
		<path class="st12" d="M362.28,370.39c0.29,0.31,0.6,0.6,0.97,0.84l9.34,6.07l-0.06-0.48
			C368.98,374.87,365.57,372.71,362.28,370.39z"/>
		<path class="st12" d="M374.08,377.62c-0.52-0.27-1.04-0.53-1.55-0.81l0.06,0.48l1.58,1.02
			C374.12,378.09,374.1,377.85,374.08,377.62z"/>
		<path class="st7" d="M493.97,360.83c0,0-0.37,0.89-1.33,2.35c0.93-0.83,1.85-1.68,2.75-2.54l-2.17-2.13L493.97,360.83z"/>
		<path class="st13" d="M528.08,202.03v82.46c0,29.88-12.48,56.82-32.49,75.97l0.29-19.59c0.07-4.29-0.14-8.58-0.73-12.84
			c-1.96-14.38,0.86-43.57,0.86-43.57l2.33-41.98c2.92-25.4-1.9-39.5-4.89-45.48c-0.99-1.98-2.36-5.3-2.97-7.42
			c-3.54-12.45-12.81-15.52-17.87-16.26c-2.1-0.31-3.8-1.87-4.27-3.93l-2.54-10.98c-0.07-0.31-0.1-0.64-0.11-0.96
			c-0.52-21.11-34.39-23.41-34.39-23.41c-26.82-2.33-42.56,12.83-42.56,12.83c-5.83,2.33-9.91,21.57-18.66,29.73
			c-8.74,8.16-26.23,85.12-26.23,85.12c-15.64,59.84,13.6,102.23,18.09,108.28c0.1,0.14,0.23,0.26,0.35,0.39
			c-26.93-19.05-44.53-50.41-44.53-85.9v-82.46c0-58.07,47.08-105.15,105.16-105.15S528.08,143.96,528.08,202.03z"/>
		<path class="st14" d="M475.79,234c-0.06,0.1-0.12,0.21-0.18,0.32c0,0-8.75,11.66-12.83-7.58c0,0-1.04-19.7-7.02-27.32
			c-0.69-0.89-1.1-1.94-1.12-3.06c-0.09-4.65-1.25-17.15-10.76-24.35c-0.52-0.38-0.99-0.84-1.33-1.38
			c-1.72-2.73-9.15-11.94-28.77-6.96c0,0-14.55,7.1-9.3,32.75c0,0-1.03,33.78-8.16,36.15c0,0-6.41,9.33,4.08,19.24l-2.07,6.72
			c0.97,0.03,2.03,0.03,3.24-0.02l17.7,9.33c0,0-8.38,8.45-22.95,8.16c0,0-2.55,0.2-5.53-0.39c-3.09,7.72-5.67,15.86-4.25,18.7
			c0.61,0.48,1.34,0.83,2.11,0.99l5.84,1.23c0.4,0.08,0.79,0.23,1.15,0.4c1.44,0.19,2.43,0.35,2.43,0.35s47.31-2.69,51.89-8.74
			c0.2-0.28,0.4-0.46,0.6-0.6c0.14-0.29,0.31-0.58,0.52-0.85c2.45-3.18,8.36-11.05,12.42-18.04c1.5-2.56,4.94-3.39,7.33-1.62
			c2.33,1.72,5.37,1.84,8.28-4.55c0,0,5.22-10.01,6.26-25.91C485.73,231.52,478.49,229.26,475.79,234z M443.26,211.5
			c-3.03-1.99-6.59-3.07-10.21-3.04c-11.41,0.1-16.47,2.54-16.47,2.54c-11.23,3.2-7.44-5.83-7.44-5.83l10.13-2.04
			c22.3-7.1,32.43,12.53,32.43,12.53C449.49,215.35,446,213.3,443.26,211.5z M473.02,266.33c-2.83,0-5.13-2.3-5.13-5.13
			c0-2.84,2.3-5.14,5.13-5.14c2.84,0,5.14,2.3,5.14,5.14C478.16,264.03,475.86,266.33,473.02,266.33z"/>
		<path class="st14" d="M493.97,360.83c0,0-0.37,0.89-1.32,2.35c-18.5,16.4-42.81,26.4-69.45,26.46c-0.16,0.01-0.33,0.01-0.49,0.01
			c-17.55-0.04-34.09-4.39-48.63-12.03c-0.75-9.39,17.16-24.43,23.99-26.7c5.21-1.74,2.65-30.68,1.01-45.31
			c22.98,9.03,42.08,8.05,51.1,6.75c1.13,11.68,11.2,16.2,12.93,16.89c0.2,0.08,0.4,0.18,0.59,0.28l29.53,28.99L493.97,360.83z"/>
		<path class="st15" d="M404.48,196.42c0,0-1.03,33.78-8.16,36.15c0,0-6.41,9.33,4.08,19.24l-2.07,6.72
			c-5.36-0.14-7.26-1.18-7.26-1.18c-9.03-3.79-9.62,8.74-9.62,8.74c0.34,6.41,5.25,8.71,9.34,9.52c-3.09,7.72-5.67,15.86-4.25,18.7
			c-0.25-0.19-0.48-0.39-0.68-0.63c-21.97-24.91-9.98-39.48-8.37-41.23c0.15-0.16,0.29-0.34,0.41-0.52
			c21.69-30.43,20.42-37.6,19.76-38.93c-0.19-0.37-0.29-0.8-0.37-1.21c-8.43-41.02,2.84-44.3,5.49-44.51
			c0.47-0.04,0.94-0.18,1.38-0.36c3.5-1.45,6.69-2.5,9.62-3.25C413.78,163.67,399.23,170.77,404.48,196.42z"/>
		<path class="st15" d="M450.44,305.72c0.06-0.33,0.08-0.67,0.07-1l-0.5-14.32c-0.03-0.86,0.16-1.7,0.54-2.46
			c-0.19,0.14-0.39,0.32-0.6,0.59c-4.58,6.05-51.89,8.75-51.89,8.75s-0.99-0.16-2.43-0.35c1.56,0.74,2.68,2.22,2.89,3.99
			c0.16,1.29,0.35,2.89,0.55,4.69c22.98,9.03,42.07,8.05,51.1,6.75C449.98,310.36,450.02,308.17,450.44,305.72z"/>
		<path class="st0" d="M473.02,266.33c2.84,0,5.14-2.3,5.14-5.14c0-2.84-2.3-5.14-5.14-5.14c-2.84,0-5.14,2.3-5.14,5.14
			C467.88,264.03,470.18,266.33,473.02,266.33z"/>
		<path class="st16" d="M443.26,211.5c2.74,1.8,6.23,3.84,8.44,4.16c0,0-10.14-19.63-32.44-12.53l-10.12,2.04
			c0,0-3.79,9.04,7.43,5.83c0,0,5.06-2.43,16.47-2.53C436.67,208.43,440.23,209.51,443.26,211.5z"/>
		<path class="st17" d="M395.53,264.68c3.89-0.15,8.07,2.79,8.07,2.79c-2.01,0.91-6.43,0.7-9.52,0.4c-1.06,2.36-2.2,5.02-3.29,7.74
			c2.98,0.59,5.53,0.39,5.53,0.39c14.57,0.29,22.95-8.16,22.95-8.16l-17.7-9.33c-1.2,0.04-2.27,0.04-3.23,0.02l-0.26,0.86
			C398.07,259.39,397.01,261.5,395.53,264.68z"/>
		<path class="st17" d="M381.45,266.09c0.34,6.41,5.25,8.71,9.34,9.52c1.09-2.72,2.24-5.38,3.29-7.74c-1.08-0.1-1.99-0.22-2.59-0.3
			c-0.36-0.05-0.56-0.37-0.37-0.61c1.2-1.61,2.78-2.21,4.41-2.28c1.48-3.19,2.53-5.3,2.53-5.3l0.26-0.86
			c-5.36-0.14-7.26-1.18-7.26-1.18C382.03,253.56,381.45,266.09,381.45,266.09z"/>
		<path class="st18" d="M403.6,267.47c0,0-4.18-2.95-8.07-2.79c-0.45,0.97-0.94,2.04-1.45,3.19
			C397.17,268.17,401.6,268.38,403.6,267.47z"/>
		<path class="st18" d="M391.12,266.96c-0.18,0.25,0.01,0.56,0.37,0.61c0.59,0.08,1.51,0.19,2.59,0.3c0.51-1.15,1-2.22,1.45-3.19
			C393.9,264.75,392.32,265.35,391.12,266.96z"/>
		<path class="st12" d="M493.45,197c-0.99-1.98-2.36-5.3-2.97-7.42c-3.54-12.45-12.81-15.52-17.87-16.26
			c-2.1-0.31-3.8-1.87-4.27-3.93l-2.54-10.98c-0.07-0.31-0.1-0.64-0.11-0.96c-0.52-21.11-34.39-23.41-34.39-23.41
			c-26.82-2.33-42.56,12.83-42.56,12.83c-5.83,2.33-9.91,21.57-18.66,29.73c-8.74,8.16-26.23,85.12-26.23,85.12
			c-15.64,59.84,13.6,102.23,18.09,108.28c0.1,0.14,0.23,0.26,0.35,0.39c3.28,2.32,6.69,4.48,10.24,6.42
			c0.51,0.28,1.04,0.54,1.55,0.81c-0.75-9.39,17.16-24.43,23.99-26.7c5.21-1.74,2.65-30.68,1.01-45.31
			c-0.34-0.13-0.67-0.25-1.01-0.39c-27.01-10.91-9.34-9.2-2.43-8.29c-0.36-0.17-0.75-0.32-1.15-0.4l-5.84-1.23
			c-0.77-0.16-1.5-0.51-2.11-0.99c-0.25-0.19-0.48-0.39-0.68-0.63c-21.97-24.91-9.98-39.48-8.37-41.23
			c0.15-0.16,0.29-0.34,0.41-0.52c21.69-30.43,20.42-37.6,19.76-38.93c-0.19-0.37-0.29-0.8-0.37-1.21
			c-8.43-41.02,2.84-44.3,5.49-44.51c0.47-0.04,0.94-0.18,1.38-0.36c3.5-1.45,6.69-2.5,9.62-3.25c19.62-4.98,27.05,4.23,28.77,6.96
			c0.34,0.54,0.81,1,1.33,1.38c9.51,7.2,10.67,19.7,10.76,24.35c0.02,1.12,0.43,2.17,1.12,3.06c5.98,7.62,7.02,27.32,7.02,27.32
			c4.08,19.24,12.83,7.58,12.83,7.58c0.06-0.11,0.12-0.22,0.18-0.32c2.7-4.74,9.94-2.48,9.58,2.97c-1.04,15.9-6.26,25.91-6.26,25.91
			c-2.91,6.39-5.95,6.27-8.28,4.55c-2.39-1.77-5.83-0.94-7.33,1.62c-4.06,6.99-9.97,14.86-12.42,18.04
			c-0.21,0.27-0.38,0.56-0.52,0.85c4.08-2.87,5.22,23.33,5.22,23.33s-2,0.57-5.6,1.09c1.13,11.68,11.2,16.2,12.93,16.89
			c0.2,0.08,0.4,0.18,0.59,0.28l29.53,28.99l2.17,2.12c0.06-0.06,0.13-0.12,0.19-0.18l0.29-19.59c0.07-4.29-0.14-8.58-0.73-12.84
			c-1.96-14.38,0.86-43.57,0.86-43.57l2.33-41.98C501.26,217.08,496.44,202.98,493.45,197z M386.99,294.95
			c-0.12-0.11-0.23-0.25-0.32-0.39C387.55,295.4,387.78,295.64,386.99,294.95z"/>
		<path class="st12" d="M386.99,294.95c-0.12-0.11-0.23-0.25-0.32-0.39C387.55,295.4,387.78,295.64,386.99,294.95z"/>
		<path class="st12" d="M399.08,305.61c-0.34-0.13-0.67-0.25-1.01-0.39c-27.01-10.91-9.34-9.2-2.43-8.29
			c1.56,0.75,2.68,2.22,2.89,3.99C398.69,302.21,398.88,303.81,399.08,305.61z"/>
		<path class="st12" d="M455.78,311.27c0,0-2,0.57-5.6,1.09c-0.19-2-0.15-4.19,0.27-6.64c0.05-0.33,0.08-0.67,0.07-1l-0.5-14.32
			c-0.03-0.86,0.16-1.7,0.54-2.46C454.64,285.07,455.78,311.27,455.78,311.27z"/>
	</g>
</g>
</svg>
